# xmcd
#
# Track frame offsets:
#	150
#	10500
#	28650
#	41812
#	55162
#	71512
#	86626
#	100350
#	113137
#	129412
#	143925
#	158287
#
# Disc length: 2309 seconds
# Revision: 0
# Processed by: cddbd v1.5.2PL0 Copyright (c) Steve Scherf et al.
# Submitted via: dBpowerAMP V12.0
#
DISCID=9509030c
DTITLE=Richard D. Henry - A Long Way From Home
DYEAR=2009
DGENRE=Country
TTITLE0=A Long Way From Home
TTITLE1=Somewhere Between the Lines
TTITLE2=That Glory Bound Express
TTITLE3=Do You Ever Think of the Old Home Place
TTITLE4=Help Me Drive The Blues Away
TTITLE5=My Heart's on the Run
TTITLE6=Mountain Melody
TTITLE7=You Can't Outrun the Blues
TTITLE8=I'm Gonna Keep On Loving You
TTITLE9=An Old Habit
TTITLE10=Not Enough Sunshine and Too Much Rain
TTITLE11=How Long Has It Been (Since You Took Time Out to Pray)
EXTD=
EXTT0=
EXTT1=
EXTT2=
EXTT3=
EXTT4=
EXTT5=
EXTT6=
EXTT7=
EXTT8=
EXTT9=
EXTT10=
EXTT11=
PLAYORDER=
